<svg width="640" height="142" viewBox="0 0 640 142" fill="none" xmlns="http://www.w3.org/2000/svg">
<path d="M76.9181 15.2588C78.4873 15.2588 79.9922 15.8821 81.1018 16.9917C82.2114 18.1013 82.8348 19.6062 82.8348 21.1754V48.0075L106.075 34.5944C107.434 33.8099 109.049 33.5973 110.565 34.0034C112.081 34.4095 113.373 35.401 114.158 36.7599L120.074 47.0076C120.859 48.3665 121.071 49.9815 120.665 51.4972C120.259 53.0129 119.268 54.3052 117.909 55.0898L94.674 68.5088L117.909 81.9337C119.268 82.7183 120.259 84.0106 120.665 85.5263C121.071 87.042 120.859 88.6569 120.074 90.0159L114.158 100.264C113.373 101.622 112.081 102.614 110.565 103.02C109.049 103.426 107.434 103.214 106.075 102.429L82.8348 89.0041V115.842C82.8348 117.411 82.2114 118.916 81.1018 120.026C79.9922 121.135 78.4873 121.759 76.9181 121.759H65.0848C63.5156 121.759 62.0106 121.135 60.9011 120.026C59.7915 118.916 59.1681 117.411 59.1681 115.842V89.0041L35.9274 102.423C34.5685 103.208 32.9536 103.42 31.4379 103.014C29.9222 102.608 28.6299 101.616 27.8453 100.258L21.9286 90.0099C21.144 88.651 20.9314 87.0361 21.3375 85.5204C21.7436 84.0047 22.7352 82.7124 24.0941 81.9278L47.3288 68.5088L24.0941 55.0898C22.7352 54.3052 21.7436 53.0129 21.3375 51.4972C20.9314 49.9815 21.144 48.3665 21.9286 47.0076L27.8453 36.7599C28.6299 35.401 29.9222 34.4095 31.4379 34.0034C32.9536 33.5973 34.5685 33.8099 35.9274 34.5944L59.1681 48.0075V21.1754C59.1681 19.6062 59.7915 18.1013 60.9011 16.9917C62.0106 15.8821 63.5156 15.2588 65.0848 15.2588H76.9181Z" stroke="black" stroke-width="7.47368" stroke-linecap="round" stroke-linejoin="round"/>
<path d="M196.695 38.1293C201.194 38.1293 204.861 38.7456 207.696 39.9783C210.593 41.2109 213.12 42.8133 215.277 44.7856V53.9379C213.921 52.9518 212.38 51.8732 210.655 50.7022C208.991 49.5312 207.018 48.5143 204.738 47.6515C202.519 46.727 199.838 46.2647 196.695 46.2647C192.073 46.2647 187.943 47.3125 184.307 49.408C180.671 51.5035 177.805 54.4002 175.709 58.0981C173.614 61.7344 172.566 65.8637 172.566 70.4861C172.566 75.1085 173.614 79.2378 175.709 82.8741C177.805 86.5104 180.671 89.4071 184.307 91.5642C187.943 93.6597 192.073 94.7074 196.695 94.7074C201.441 94.7074 205.478 93.937 208.806 92.3962C212.196 90.7938 214.969 89.1606 217.126 87.4965V95.8168C214.969 97.7274 212.134 99.3915 208.621 100.809C205.17 102.165 201.194 102.843 196.695 102.843C192.011 102.843 187.697 102.011 183.752 100.347C179.808 98.6211 176.357 96.2791 173.398 93.3207C170.44 90.3624 168.129 86.9418 166.465 83.059C164.862 79.1146 164.061 74.9236 164.061 70.4861C164.061 66.0486 164.862 61.8884 166.465 58.0056C168.129 54.0612 170.44 50.6098 173.398 47.6515C176.357 44.6931 179.808 42.3819 183.752 40.7179C187.697 38.9922 192.011 38.1293 196.695 38.1293ZM248.651 54.3077C253.397 54.3077 257.341 55.2938 260.484 57.266C263.627 59.2383 265.969 61.9193 267.51 65.309C269.113 68.6988 269.914 72.5199 269.914 76.7726V81.3025H234.414C234.784 83.891 235.677 86.2639 237.095 88.421C238.512 90.5781 240.361 92.3038 242.642 93.5981C244.922 94.8307 247.541 95.447 250.5 95.447C253.828 95.447 256.94 94.615 259.837 92.9509C262.734 91.2252 265.168 89.3455 267.14 87.3116L267.048 95.5395C266.185 96.5872 264.891 97.6966 263.165 98.8676C261.501 99.977 259.56 100.901 257.341 101.641C255.184 102.442 252.903 102.843 250.5 102.843C245.816 102.843 241.656 101.733 238.019 99.5147C234.383 97.296 231.517 94.3685 229.422 90.7322C227.388 87.0343 226.371 82.9974 226.371 78.6215C226.371 74.2456 227.326 70.2087 229.237 66.5108C231.147 62.8129 233.767 59.8546 237.095 57.6358C240.485 55.4171 244.337 54.3077 248.651 54.3077ZM248.651 61.7035C244.83 61.7035 241.686 62.9978 239.221 65.5864C236.756 68.1133 235.215 71.1949 234.599 74.8311H262.426C262.117 71.8112 261.255 69.3459 259.837 67.4353C258.481 65.5247 256.817 64.1072 254.845 63.1827C252.873 62.1966 250.808 61.7035 248.651 61.7035ZM289.975 55.2322V62.5356C290.961 61.3029 292.225 60.0703 293.765 58.8377C295.306 57.5434 297.032 56.4648 298.943 55.602C300.915 54.7391 302.949 54.3077 305.044 54.3077C308.187 54.3077 311.053 55.0165 313.642 56.434C316.23 57.7899 318.295 59.8854 319.836 62.7205C321.377 65.4939 322.147 69.0069 322.147 73.2595V101.456H314.566L314.474 73.9991C314.474 69.993 313.58 66.9423 311.793 64.8468C310.067 62.7513 307.386 61.7035 303.75 61.7035C301.285 61.7035 298.819 62.628 296.354 64.477C293.95 66.2643 291.824 68.3598 289.975 70.7634V101.456H282.394V55.2322H289.975ZM349.234 41.9197V55.2322H362.732V62.3507H349.234V89.4379C349.234 91.3485 349.727 92.8585 350.713 93.9679C351.699 95.0772 353.209 95.6319 355.243 95.6319C357.092 95.6319 358.633 95.4162 359.866 94.9848C361.098 94.4917 362.177 93.9679 363.101 93.4132V99.6072C361.869 100.593 360.544 101.364 359.126 101.918C357.77 102.535 355.921 102.843 353.579 102.843C349.635 102.843 346.646 101.672 344.612 99.3298C342.64 96.9262 341.653 93.7522 341.653 89.8077V62.3507H332.778V60.1319C335.798 58.776 338.325 56.5573 340.359 53.4757C342.393 50.3324 344.18 46.4804 345.721 41.9197H349.234ZM402.577 39.516C406.151 39.516 409.572 40.194 412.838 41.5499C416.105 42.8442 418.786 44.878 420.881 47.6515C423.038 50.3633 424.117 53.8455 424.117 58.0981C424.117 61.9193 423.008 65.1549 420.789 67.8051C418.632 70.4553 415.858 72.4583 412.469 73.8142C409.14 75.1085 405.689 75.7556 402.114 75.7556C401.005 75.7556 399.526 75.694 397.677 75.5707L426.521 101.456H413.763L387.138 75.5707V101.456H378.818V39.516H402.577ZM387.138 47.3741V67.2504C389.172 67.8051 391.39 68.2365 393.794 68.5447C396.198 68.8528 398.571 69.0069 400.913 69.0069C405.597 69.0069 409.202 68.0208 411.729 66.0486C414.318 64.0764 415.612 61.4262 415.612 58.0981C415.612 54.6467 414.194 51.9965 411.359 50.1475C408.586 48.2986 405.196 47.3741 401.19 47.3741H387.138ZM461.466 39.516L490.402 101.456H480.418L473.946 86.6645H444.918L438.354 101.456H428.37L457.306 39.516H461.466ZM459.525 53.5681L448.338 78.8064H470.526L459.525 53.5681ZM559.091 39.516V101.456H550.771V56.6189L531.634 77.0499H529.415L509.816 56.6189V101.456H501.496V39.516H504.084L530.525 67.8976L556.502 39.516H559.091ZM606.517 38.1293C611.201 38.1293 615.515 38.9922 619.459 40.7179C623.404 42.3819 626.855 44.6931 629.814 47.6515C632.772 50.6098 635.052 54.0612 636.655 58.0056C638.319 61.8884 639.151 66.0486 639.151 70.4861C639.151 75.355 638.165 79.9158 636.193 84.1684C634.282 88.3594 631.57 91.9648 628.057 94.9848C624.606 98.0048 620.6 100.193 616.039 101.549C620.292 103.151 624.575 104.507 628.889 105.616C633.203 106.787 636.871 107.373 639.89 107.373V115.693C636.501 115.693 632.803 115.108 628.797 113.937C624.852 112.827 620.939 111.286 617.056 109.314C613.235 107.342 609.722 105.185 606.517 102.843C601.833 102.843 597.519 102.011 593.574 100.347C589.63 98.6211 586.178 96.2791 583.22 93.3207C580.262 90.3624 577.95 86.9418 576.286 83.059C574.684 79.1146 573.883 74.9236 573.883 70.4861C573.883 66.0486 574.684 61.8884 576.286 58.0056C577.95 54.0612 580.262 50.6098 583.22 47.6515C586.178 44.6931 589.63 42.3819 593.574 40.7179C597.519 38.9922 601.833 38.1293 606.517 38.1293ZM606.517 46.2647C601.894 46.2647 597.765 47.3125 594.129 49.408C590.492 51.5035 587.627 54.4002 585.531 58.0981C583.436 61.7344 582.388 65.8637 582.388 70.4861C582.388 75.1085 583.436 79.2378 585.531 82.8741C587.627 86.5104 590.492 89.4071 594.129 91.5642C597.765 93.6597 601.894 94.7074 606.517 94.7074C611.139 94.7074 615.269 93.6597 618.905 91.5642C622.541 89.4071 625.407 86.5104 627.502 82.8741C629.598 79.2378 630.646 75.1085 630.646 70.4861C630.646 65.8637 629.598 61.7344 627.502 58.0981C625.407 54.4002 622.541 51.5035 618.905 49.408C615.269 47.3125 611.139 46.2647 606.517 46.2647Z" fill="black"/>
</svg>
